<?xml version="1.0" encoding="utf-8" ?>
<svg xmlns="http://www.w3.org/2000/svg" xmlns:ev="http://www.w3.org/2001/xml-events" xmlns:xlink="http://www.w3.org/1999/xlink" baseProfile="full" height="1000" version="1.1" width="1000">
  <defs/>
  <polygon fill="none" points="12.071067811865476,5.0 5.000000000000001,12.071067811865476 -5.0,12.071067811865476 -12.071067811865476,5.000000000000002 -12.071067811865477,-4.999999999999999 -5.000000000000008,-12.071067811865472 4.999999999999992,-12.071067811865479 12.071067811865472,-5.000000000000008" stroke="black" stroke-width="1"/>
  <polygon fill="none" points="112.07106781186548,105.0 105.0,112.07106781186548 95.0,112.07106781186548 87.92893218813452,105.0 87.92893218813452,95.0 94.99999999999999,87.92893218813452 104.99999999999999,87.92893218813452 112.07106781186548,94.99999999999999" stroke="black" stroke-width="1"/>
  <polygon fill="none" points="68.77036634119453,152.9607214615143 59.53157101608169,156.78755578516518 50.2927756909688,152.96072146151428 46.46594136731791,143.72192613640138 50.292775690968824,134.48313081128856 59.531571016081664,130.65629648763763 68.77036634119453,134.48313081128856 72.59720066484545,143.7219261364014" stroke="black" stroke-width="1"/>
  <polygon fill="none" points="620.7106781186548,550.0 550.0,620.7106781186548 450.0,620.7106781186548 379.28932188134524,550.0 379.28932188134524,450.0 449.99999999999994,379.28932188134524 549.9999999999999,379.28932188134524 620.7106781186548,449.99999999999994" stroke="black" stroke-width="1"/>
  <polygon points="400.0,50.0 411.7557050458495,83.81966011250105 447.5528258147577,84.54915028125264 419.0211303259031,106.18033988749895 429.38926261462365,140.45084971874738 400.0,120.0 370.61073738537635,140.45084971874738 380.9788696740969,106.18033988749895 352.4471741852423,84.54915028125264 388.2442949541505,83.81966011250105"/>
</svg>
